<mxfile host="app.diagrams.net" modified="2021-01-14T04:30:01.275Z" agent="5.0 (Windows NT 10.0; Win64; x64) AppleWebKit/537.36 (KHTML, like Gecko) Chrome/87.0.4280.141 Safari/537.36 Edg/87.0.664.75" etag="Q7ZsioQr_N0-HkON-oB-" version="14.2.2" type="github">
  <diagram id="mgTLQ6opRrQL72t2xCD5" name="Page-1">
    <mxGraphModel dx="1038" dy="580" grid="1" gridSize="10" guides="1" tooltips="1" connect="1" arrows="1" fold="1" page="1" pageScale="1" pageWidth="827" pageHeight="1169" math="0" shadow="0">
      <root>
        <mxCell id="0" />
        <mxCell id="1" parent="0" />
        <mxCell id="SqctQO65Fk4OEUkiv7VP-1" value="" style="ellipse;whiteSpace=wrap;html=1;aspect=fixed;" vertex="1" parent="1">
          <mxGeometry x="30" y="110" width="110" height="110" as="geometry" />
        </mxCell>
        <mxCell id="SqctQO65Fk4OEUkiv7VP-2" value="Actor" style="shape=umlActor;verticalLabelPosition=bottom;verticalAlign=top;html=1;outlineConnect=0;" vertex="1" parent="1">
          <mxGeometry x="70" y="50" width="30" height="60" as="geometry" />
        </mxCell>
        <mxCell id="SqctQO65Fk4OEUkiv7VP-3" value="" style="endArrow=classic;startArrow=classic;html=1;" edge="1" parent="1">
          <mxGeometry width="50" height="50" relative="1" as="geometry">
            <mxPoint x="110" y="150" as="sourcePoint" />
            <mxPoint x="160" y="100" as="targetPoint" />
            <Array as="points">
              <mxPoint x="100" y="60" />
            </Array>
          </mxGeometry>
        </mxCell>
        <mxCell id="SqctQO65Fk4OEUkiv7VP-4" value="" style="rhombus;whiteSpace=wrap;html=1;strokeWidth=2;fillWeight=-1;hachureGap=8;fillStyle=cross-hatch;fillColor=#006600;sketch=1;" vertex="1" parent="1">
          <mxGeometry x="20" y="180" width="120" height="60" as="geometry" />
        </mxCell>
        <mxCell id="SqctQO65Fk4OEUkiv7VP-5" value="" style="shape=image;html=1;verticalLabelPosition=bottom;verticalAlign=top;imageAspect=0;image=img/clipart/Gear_128x128.png" vertex="1" parent="1">
          <mxGeometry x="140" y="70" width="50" height="60" as="geometry" />
        </mxCell>
        <mxCell id="SqctQO65Fk4OEUkiv7VP-6" value="Vertical Tree Layout" style="swimlane;html=1;startSize=20;horizontal=1;childLayout=treeLayout;horizontalTree=0;resizable=0;containerType=tree;" vertex="1" parent="1">
          <mxGeometry x="220" y="60" width="280" height="190" as="geometry" />
        </mxCell>
        <mxCell id="SqctQO65Fk4OEUkiv7VP-7" value="Root" style="whiteSpace=wrap;html=1;" vertex="1" parent="SqctQO65Fk4OEUkiv7VP-6">
          <mxGeometry x="90" y="40" width="100" height="40" as="geometry" />
        </mxCell>
        <mxCell id="SqctQO65Fk4OEUkiv7VP-8" value="Child 1" style="whiteSpace=wrap;html=1;" vertex="1" parent="SqctQO65Fk4OEUkiv7VP-6">
          <mxGeometry x="20" y="130" width="100" height="40" as="geometry" />
        </mxCell>
        <mxCell id="SqctQO65Fk4OEUkiv7VP-9" value="" style="edgeStyle=elbowEdgeStyle;elbow=vertical;html=1;rounded=0;" edge="1" parent="SqctQO65Fk4OEUkiv7VP-6" source="SqctQO65Fk4OEUkiv7VP-7" target="SqctQO65Fk4OEUkiv7VP-8">
          <mxGeometry relative="1" as="geometry" />
        </mxCell>
        <mxCell id="SqctQO65Fk4OEUkiv7VP-10" value="Child 2" style="whiteSpace=wrap;html=1;" vertex="1" parent="SqctQO65Fk4OEUkiv7VP-6">
          <mxGeometry x="160" y="130" width="100" height="40" as="geometry" />
        </mxCell>
        <mxCell id="SqctQO65Fk4OEUkiv7VP-11" value="" style="edgeStyle=elbowEdgeStyle;elbow=vertical;html=1;rounded=0;" edge="1" parent="SqctQO65Fk4OEUkiv7VP-6" source="SqctQO65Fk4OEUkiv7VP-7" target="SqctQO65Fk4OEUkiv7VP-10">
          <mxGeometry relative="1" as="geometry" />
        </mxCell>
        <mxCell id="SqctQO65Fk4OEUkiv7VP-12" value="Process Bar" style="swimlane;childLayout=stackLayout;horizontal=1;fillColor=none;horizontalStack=1;resizeParent=1;resizeParentMax=0;resizeLast=0;collapsible=0;strokeColor=none;stackBorder=10;stackSpacing=-12;resizable=1;align=center;points=[];fontColor=#000000;" vertex="1" parent="1">
          <mxGeometry x="30" y="220" width="372" height="100" as="geometry" />
        </mxCell>
        <mxCell id="SqctQO65Fk4OEUkiv7VP-13" value="Step 1" style="shape=step;perimeter=stepPerimeter;fixedSize=1;points=[];" vertex="1" parent="SqctQO65Fk4OEUkiv7VP-12">
          <mxGeometry x="10" y="33" width="100" height="57" as="geometry" />
        </mxCell>
        <mxCell id="SqctQO65Fk4OEUkiv7VP-14" value="Step 2" style="shape=step;perimeter=stepPerimeter;fixedSize=1;points=[];" vertex="1" parent="SqctQO65Fk4OEUkiv7VP-12">
          <mxGeometry x="98" y="33" width="100" height="57" as="geometry" />
        </mxCell>
        <mxCell id="SqctQO65Fk4OEUkiv7VP-15" value="Step 3" style="shape=step;perimeter=stepPerimeter;fixedSize=1;points=[];" vertex="1" parent="SqctQO65Fk4OEUkiv7VP-12">
          <mxGeometry x="186" y="33" width="100" height="57" as="geometry" />
        </mxCell>
        <mxCell id="SqctQO65Fk4OEUkiv7VP-16" value="" style="strokeWidth=2;html=1;shape=mxgraph.flowchart.multi-document;whiteSpace=wrap;" vertex="1" parent="SqctQO65Fk4OEUkiv7VP-12">
          <mxGeometry x="274" y="33" width="88" height="57" as="geometry" />
        </mxCell>
      </root>
    </mxGraphModel>
  </diagram>
</mxfile>
